# xmcd
#
# Track frame offsets: 
#        150
#        13437
#        27784
#        41386
#        56635
#        69310
#        83819
#        97571
#        111086
#        125488
#        139882
#        153267
#        167136
#        178766
#        191770
#        204590
#        216677
#        229964
#        241788
#
# Disc length: 3495 seconds
#
# Revision: 8
# Processed by: cddbd v1.5.2PL0 Copyright (c) Steve Scherf et al.
# Submitted via: ExactAudioCopyFreeDBPlugin 1.0
#
DISCID=090da513
DTITLE=Various Artist - The Slide Guitar^ Bottles, Knives and Steel
DYEAR=1990
DGENRE=Blues
TTITLE0=Weaver and Beasley - Bottleneck Blues
TTITLE1=Barbecue Bob - Untitled
TTITLE2=Blind Willie Johnson - God Don't Never Change
TTITLE3=Blind Willie Johnson - Dark Was the Night
TTITLE4=Weaver and Beasley - St. Louis Blues
TTITLE5=Ruth Willis - Experience Blues
TTITLE6=Sylvester Weaver - Guitar Rag
TTITLE7=Tampa Red and Georgia Tom - You Can't Get That Stuff No More
TTITLE8=Charlie Patton - High Sheriff Blues
TTITLE9=Blind Boy Fuller - Homesick and Lonesome Blues
TTITLE10=Leadbelly - Packin' Trunk Blues
TTITLE11=Casey Bill Weldon - I Believe I'll Make a Change
TTITLE12=Buddy Woods - Don't Sell It (Don't Give it Away)
TTITLE13=Buddy Woods - Muscat Hill Blues
TTITLE14=Robert Johnson - Travelling Riverside Blues
TTITLE15=Bukka White - Bukka's Jitterbug Swing
TTITLE16=Bukka White - Special Stream Line
TTITLE17=Sister O.M. Terrell - Swing Low, Chariot
TTITLE18=Son House - Pearline
EXTD=
EXTT0=
EXTT1=
EXTT2=
EXTT3=
EXTT4=
EXTT5=
EXTT6=
EXTT7=
EXTT8=
EXTT9=
EXTT10=
EXTT11=
EXTT12=
EXTT13=
EXTT14=
EXTT15=
EXTT16=
EXTT17=
EXTT18=
PLAYORDER=
